HIERARCHY
ROOT root
{
	OFFSET	0	13.1	24.9
	CHANNELS 6  Xposition Yposition Zposition Xrotation Yrotation Zrotation
	JOINT spine_1
	{
		OFFSET	0	9.99999	0
		CHANNELS 3  Xrotation Yrotation Zrotation
		JOINT spine_2
		{
			OFFSET	0	112	-10
			CHANNELS 3  Xrotation Yrotation Zrotation
			JOINT spine_3
			{
				OFFSET	0	206.5	19.3
				CHANNELS 3  Xrotation Yrotation Zrotation
				JOINT spine_4
				{
					OFFSET	0	110.4	14.6
					CHANNELS 3  Xrotation Yrotation Zrotation
					JOINT neck_1
					{
						OFFSET	0	71.8	-50.3
						CHANNELS 3  Xrotation Yrotation Zrotation
						JOINT neck_2
						{
							OFFSET	0	86.2	-25.8
							CHANNELS 3  Xrotation Yrotation Zrotation
							JOINT head_ee
							{
								OFFSET	0	179.8	-8.7
								CHANNELS 3  Xrotation Yrotation Zrotation
								End Site
								{
									OFFSET	1	0	0
								}
							}
						}
					}
					JOINT left_clavicle
					{
						OFFSET	-43.2	22.4	-70.8
						CHANNELS 3  Xrotation Yrotation Zrotation
						JOINT left_shoulder
						{
							OFFSET	-93.9	-5.79999	48.7
							CHANNELS 3  Xrotation Yrotation Zrotation
							JOINT left_elbow
							{
								OFFSET	-291.4	-30.8	15.2
								CHANNELS 3  Xrotation Yrotation Zrotation
								JOINT left_lowarm_twist
								{
									OFFSET	-110.7	-3.89999	13.6
									CHANNELS 3  Xrotation Yrotation Zrotation
									JOINT left_hand
									{
										OFFSET	-110.7	-3.89999	13.6
										CHANNELS 3  Xrotation Yrotation Zrotation
										JOINT left_ee
										{
											OFFSET	-80.8	-5.10001	12.1
											CHANNELS 3  Xrotation Yrotation Zrotation
											End Site
											{
												OFFSET	1	0	0
											}
										}
									}
								}
							}
						}
					}
					JOINT right_clavicle
					{
						OFFSET	43.2	22.4	-70.8
						CHANNELS 3  Xrotation Yrotation Zrotation
						JOINT right_shoulder
						{
							OFFSET	93.9	-5.79999	48.7
							CHANNELS 3  Xrotation Yrotation Zrotation
							JOINT right_elbow
							{
								OFFSET	291.4	-30.8	15.2
								CHANNELS 3  Xrotation Yrotation Zrotation
								JOINT right_lowarm_twist
								{
									OFFSET	110.7	-3.89999	13.6
									CHANNELS 3  Xrotation Yrotation Zrotation
									JOINT right_hand
									{
										OFFSET	110.7	-3.89999	13.6
										CHANNELS 3  Xrotation Yrotation Zrotation
										JOINT right_ee
										{
											OFFSET	80.8	-5.10001	12.1
											CHANNELS 3  Xrotation Yrotation Zrotation
											End Site
											{
												OFFSET	1	0	0
											}
										}
									}
								}
							}
						}
					}
				}
			}
		}
	}
	JOINT left_hip
	{
		OFFSET	-82.8	-127.5	0.300001
		CHANNELS 3  Xrotation Yrotation Zrotation
		JOINT left_knee
		{
			OFFSET	-28.2	-396.7	2.2
			CHANNELS 3  Xrotation Yrotation Zrotation
			JOINT left_ankle
			{
				OFFSET	-11.7	-411.3	35.4
				CHANNELS 3  Xrotation Yrotation Zrotation
				JOINT left_toes
				{
					OFFSET	0	-60	-88.6
					CHANNELS 3  Xrotation Yrotation Zrotation
					JOINT left_foot_ee
					{
						OFFSET	-22.5	-16.5	-42.2
						CHANNELS 3  Xrotation Yrotation Zrotation
						End Site
						{
							OFFSET	1	0	0
						}
					}
				}
			}
		}
	}
	JOINT right_hip
	{
		OFFSET	82.8	-127.5	0.300001
		CHANNELS 3  Xrotation Yrotation Zrotation
		JOINT right_knee
		{
			OFFSET	28.2	-396.7	2.2
			CHANNELS 3  Xrotation Yrotation Zrotation
			JOINT right_ankle
			{
				OFFSET	11.7	-411.3	35.4
				CHANNELS 3  Xrotation Yrotation Zrotation
				JOINT right_toes
				{
					OFFSET	0	-60	-88.6
					CHANNELS 3  Xrotation Yrotation Zrotation
					JOINT right_foot_ee
					{
						OFFSET	22.5	-16.5	-42.2
						CHANNELS 3  Xrotation Yrotation Zrotation
						End Site
						{
							OFFSET	1	0	0
						}
					}
				}
			}
		}
	}
}
MOTION
Frames: 12
Frame Time: 0.02
2594.74 707.669 -1449.56 9.34768 55.7186 -14.547 0.111168 0.402554 4.17797 0.120866 0.136122 4.19508 0.135147 -0.740044 4.13164 0.111341 -0.07884 4.19655 -8.09094 18.5626 -3.66721 -8.22598 37.2599 0.617631 -0.0 0.0 -0.0 -1.18743 19.7125 0.547668 12.1794 -22.8295 42.1388 4.08857 -63.7039 2.54082 -33.1181 -2.25076 3.52388 -2.14587 18.5047 -5.43786 -0.0 0.0 -0.0 12.5392 26.3503 -24.5746 -27.1799 14.1744 -68.6579 0.170056 4.81538 -0.00715029 28.7368 -0.103666 3.63121 0.516644 5.51885 -1.14455 0.0 0.0 0.0 -38.2227 45.2285 19.9714 -6.74947 0.218477 1.01221 30.3454 -31.5508 -4.94851 -38.7656 0.0 0.0 -0.0 0.0 -0.0 17.9186 10.0555 -9.88849 0.798709 0.0337127 0.117929 -0.950451 6.11722 -0.144031 -21.7125 0.0 0.0 0.0 0.0 0.0 
2571.67 711.115 -1457.8 10.406 55.2157 -16.2899 0.141659 0.496967 4.37354 0.15227 0.217936 4.39624 0.173789 -0.698866 4.3459 0.147442 -0.00443306 4.40163 -8.03846 19.1302 -1.09292 -8.2152 36.5472 3.28658 -0.0 0.0 -0.0 -1.59299 21.9539 0.299297 10.394 -24.156 42.8008 3.85312 -62.3324 2.33099 -36.1794 -2.55431 3.77298 -1.74317 18.9446 -2.7998 -0.0 0.0 -0.0 11.9896 26.2138 -23.333 -24.6885 15.3274 -71.1147 0.164074 4.64675 -0.006657 27.2633 -0.142799 3.44706 0.0405136 5.49315 2.05546 0.0 0.0 0.0 -31.8008 43.6401 14.8279 -20.4692 0.289766 3.11111 33.1311 -31.5945 -5.29245 -39.2243 0.0 0.0 -0.0 0.0 -0.0 16.4278 11.2443 -8.4396 -3.43985 -0.126267 -0.512731 6.53256 8.9439 0.982212 -23.7345 0.0 0.0 0.0 0.0 0.0 
2543.32 710.115 -1466.84 11.5324 54.0844 -18.231 0.189202 0.675126 4.452 0.20014 0.390758 4.48585 0.235907 -0.543086 4.47 0.208074 0.168943 4.49964 -9.56461 20.2841 0.277127 -10.0601 38.0136 5.52258 -0.0 0.0 -0.0 -1.62997 23.04 0.417955 8.57055 -23.8469 43.8487 3.35022 -58.915 1.89255 -36.0573 -2.54195 3.76335 -1.63322 18.549 -2.32551 -0.0 0.0 -0.0 11.6308 26.1961 -22.518 -23.2831 15.7291 -72.3802 0.156941 4.44558 -0.00609165 27.5974 -0.134343 3.48889 0.655711 8.23758 -0.930128 0.0 0.0 0.0 -26.5096 39.9053 11.3442 -34.0188 -0.130722 5.14322 29.7236 -30.3817 -4.79536 -39.466 0.0 0.0 -0.0 0.0 -0.0 12.4903 12.3546 -6.75779 -3.826 -0.138512 -0.570727 9.32204 11.2059 1.40569 -20.2259 0.0 0.0 0.0 0.0 0.0 
2530.29 711.636 -1467.14 11.008 53.3869 -17.5286 0.289666 0.694474 4.25834 0.299652 0.422353 4.29381 0.335856 -0.464868 4.28942 0.310255 0.217752 4.30901 -9.41545 19.7359 -0.857105 -9.8659 37.7121 4.2107 -0.0 0.0 -0.0 -1.81838 22.4117 0.0551738 5.38533 -23.5713 44.4552 2.85693 -54.7447 1.47937 -36.0036 -2.53652 3.75911 -1.26906 17.5834 -0.568398 -0.0 0.0 -0.0 11.7576 26.6986 -22.7485 -22.3933 16.0369 -72.2351 0.161652 4.57847 -0.00646226 27.8722 -0.127204 3.52327 0.78692 9.48146 -1.28529 0.0 0.0 0.0 -24.6464 39.334 10.664 -37.2207 -0.299482 5.60525 28.9853 -28.7786 -4.60793 -39.7089 0.0 0.0 -0.0 0.0 -0.0 12.0485 13.1671 -6.59588 -4.40993 -0.156284 -0.658581 9.89858 12.1361 1.49796 -19.2997 0.0 0.0 0.0 0.0 0.0 
2510.05 713.776 -1472.09 9.81132 53.0166 -16.5713 0.392353 0.712934 4.21652 0.402132 0.44343 4.25325 0.43928 -0.428169 4.25481 0.414111 0.248541 4.26905 -8.29445 19.978 -1.67908 -8.54111 38.5769 3.02924 -0.0 0.0 -0.0 -2.35776 20.9449 -0.963246 2.14309 -20.9172 46.8179 2.64148 -52.6029 1.30576 -35.727 -2.50862 3.73719 -1.07282 17.0847 0.40256 -0.0 0.0 -0.0 11.6552 24.9172 -22.7126 -21.0806 16.5314 -71.8064 0.181197 5.12924 -0.00811604 27.9276 -0.125742 3.53021 0.857713 10.8205 -1.1889 0.0 0.0 0.0 -23.5829 38.5915 10.5692 -37.9096 -0.339162 5.70341 28.3641 -26.6965 -4.41985 -39.8782 0.0 0.0 -0.0 0.0 -0.0 12.4432 13.6953 -6.76264 -6.18408 -0.204772 -0.926525 12.2751 9.71283 1.8139 -17.9022 0.0 0.0 0.0 0.0 0.0 
2483.63 715.943 -1475.24 9.58295 50.6362 -16.4616 0.544998 0.791735 4.23107 0.554804 0.521148 4.27277 0.597636 -0.343939 4.29064 0.572112 0.337363 4.29116 -5.63401 19.1971 -4.04172 -5.29026 38.4389 -0.59386 -0.0 0.0 -0.0 -2.49645 21.918 -0.986122 -3.78447 -23.3582 46.8777 2.13988 -46.6634 0.923071 -35.8478 -2.52079 3.74678 -0.769667 17.0338 2.2273 -0.0 0.0 -0.0 12.1296 25.7542 -23.7048 -19.6912 17.0393 -71.1735 0.189962 5.37593 -0.00891842 28.1793 -0.119029 3.56165 1.15904 12.6813 -2.4161 0.0 0.0 0.0 -19.7629 36.8786 7.73393 -43.3483 -0.693407 6.46053 28.4466 -29.2907 -4.56804 -40.1483 0.0 0.0 -0.0 0.0 -0.0 9.43094 14.6809 -5.86118 -5.34031 -0.182746 -0.798909 14.1151 12.1973 2.09994 -15.9662 0.0 0.0 0.0 0.0 0.0 
2469.16 720.276 -1476.94 8.65805 49.145 -15.3135 0.609862 0.743783 4.18078 0.619457 0.476485 4.21954 0.658184 -0.372674 4.22995 0.633348 0.299428 4.23575 -5.88919 19.5739 -3.04739 -5.63204 38.4562 0.60051 -0.0 0.0 -0.0 -2.26949 18.6217 -1.24374 -8.9684 -23.485 48.8029 1.49928 -36.5988 0.495845 -35.3813 -2.47389 3.7096 -0.255717 14.7323 4.4408 -0.0 0.0 -0.0 12.1842 25.878 -23.8157 -17.9248 17.7889 -71.2207 0.436074 12.1898 -0.046564 27.6581 -0.13278 3.49649 1.10762 12.3651 -2.20701 0.0 0.0 0.0 -18.873 36.7909 7.52323 -44.1384 -0.750816 6.56766 28.729 -25.3477 -4.40001 -40.1496 0.0 0.0 -0.0 0.0 -0.0 8.68084 14.0221 -5.59446 -6.17337 -0.204504 -0.924903 14.8849 16.3751 2.27215 -14.2557 0.0 0.0 0.0 0.0 0.0 
2455.44 720.937 -1479.27 8.11441 48.7467 -14.9948 0.658817 0.897817 4.19096 0.668366 0.629563 4.23948 0.718712 -0.221681 4.28016 0.693446 0.456444 4.26155 -5.44826 19.1994 -4.42796 -5.04697 38.6993 -1.0675 -0.0 0.0 -0.0 -2.21444 22.3497 -0.510869 -9.58582 -22.635 49.5104 1.61374 -38.6359 0.565725 -35.907 -2.52676 3.75147 -0.430291 14.829 3.39468 -0.0 0.0 -0.0 12.4369 26.0434 -24.3758 -15.7413 18.4294 -71.7847 0.438493 12.2554 -0.0470761 27.6922 -0.131897 3.50077 1.18501 13.4096 -2.27341 0.0 0.0 0.0 -17.8939 36.4191 6.90219 -42.1387 -0.608405 6.29505 30.5944 -25.3271 -4.62406 -40.0919 0.0 0.0 -0.0 0.0 -0.0 7.62657 14.42 -4.70053 -5.42927 -0.185157 -0.812349 15.3604 17.0842 2.35259 -14.0445 0.0 0.0 0.0 0.0 0.0 
2444.92 719.114 -1478.18 7.67467 49.4689 -14.8103 0.693707 0.914085 4.13896 0.703002 0.649097 4.18862 0.754074 -0.189783 4.23428 0.729383 0.480719 4.21123 -5.16746 19.1416 -4.88921 -4.68435 38.8934 -1.67154 -0.0 0.0 -0.0 -1.73998 18.0149 -0.541387 -13.0607 -22.9305 52.1841 1.22951 -31.3429 0.344951 -35.3016 -2.46591 3.7032 -0.0146774 13.2011 5.33608 -0.0 0.0 -0.0 12.6517 26.3559 -24.8325 -13.7582 18.9402 -70.8653 0.551481 15.2798 -0.073975 27.6881 -0.132002 3.50025 1.1 12.377 -2.15045 0.0 0.0 0.0 -16.4309 36.7979 5.72595 -44.978 -0.813448 6.68064 31.7262 -25.1597 -4.74789 -39.5708 0.0 0.0 -0.0 0.0 -0.0 7.51715 14.1158 -3.92139 -6.17842 -0.20463 -0.925667 17.6232 17.0927 2.66989 -12.4827 0.0 0.0 0.0 0.0 0.0 
2435.78 719.135 -1478.97 7.21212 50.8775 -14.4779 0.684172 0.833125 4.12922 0.693476 0.568919 4.17376 0.738426 -0.266817 4.20384 0.713995 0.399852 4.1933 -5.2295 19.0333 -4.97532 -4.75746 38.7629 -1.75469 -0.0 0.0 -0.0 -1.61795 17.9827 -0.360286 -15.1047 -22.6636 54.0084 1.08018 -28.15 0.270829 -35.6967 -2.50556 3.73477 -0.0298511 13.8077 5.48211 -0.0 0.0 -0.0 12.8407 26.0329 -25.3056 -10.541 19.4766 -70.6638 0.607925 16.7597 -0.0895531 27.9992 -0.123849 3.53915 1.07493 12.2629 -2.031 0.0 0.0 0.0 -15.0488 36.5179 4.99345 -44.9439 -0.810869 6.67607 33.1623 -24.981 -4.90146 -39.4492 0.0 0.0 -0.0 0.0 -0.0 7.30781 13.6233 -3.41017 -6.01058 -0.200396 -0.900259 19.0388 16.0122 2.84005 -11.4228 0.0 0.0 0.0 0.0 0.0 
2424.88 720.348 -1478.68 7.04564 52.1652 -14.2768 0.692611 0.795501 4.12568 0.701921 0.531595 4.16784 0.744012 -0.301924 4.19071 0.719696 0.363113 4.18585 -5.63655 18.9471 -5.20745 -5.23409 38.8158 -1.84504 -0.0 0.0 -0.0 -1.34126 18.4749 0.135454 -16.4922 -22.3548 55.1382 0.968783 -25.6362 0.220429 -35.7139 -2.5073 3.73615 0.0677241 12.6235 5.62707 -0.0 0.0 -0.0 13.2227 26.549 -26.126 -8.90849 19.8581 -70.3585 0.681411 18.6522 -0.111905 28.0628 -0.122154 3.5471 1.08145 12.3425 -2.04045 0.0 0.0 0.0 -13.1777 36.6915 4.22922 -44.1762 -0.7536 6.57277 33.0489 -24.5127 -4.86553 -39.4173 0.0 0.0 -0.0 0.0 -0.0 7.16665 13.0179 -2.94241 -6.04804 -0.201348 -0.905928 19.299 15.0837 2.85562 -11.0309 0.0 0.0 0.0 0.0 0.0 
2410.33 721.314 -1478.2 6.87851 54.1738 -14.2269 0.728544 0.646669 4.18075 0.738185 0.379568 4.21335 0.769257 -0.458511 4.2055 0.744646 0.210812 4.22513 -6.02267 18.1344 -5.50644 -5.69778 37.5629 -2.1525 -0.0 0.0 -0.0 -1.03167 18.9904 0.675932 -18.1058 -22.076 56.884 0.901606 -24.0666 0.192194 -36.322 -2.56877 3.78418 0.155329 11.8085 5.86059 -0.0 0.0 -0.0 13.5042 26.2556 -26.8149 -7.52406 20.0939 -70.1009 0.687524 18.8078 -0.113869 28.1034 -0.12107 3.55217 1.10265 12.2759 -2.21226 0.0 0.0 0.0 -11.2837 35.8038 3.20537 -43.5524 -0.708095 6.48828 35.5933 -24.0596 -5.1166 -38.9223 0.0 0.0 -0.0 0.0 -0.0 6.81421 12.1969 -2.30929 -6.1153 -0.203047 -0.91611 20.4112 12.8417 2.95799 -9.68276 0.0 0.0 0.0 0.0 0.0 
